<?xml version="1.0" encoding="UTF-8"?>
<svg width="130px" height="170px" viewBox="0 0 130 170" version="1.1" xmlns="http://www.w3.org/2000/svg" xmlns:xlink="http://www.w3.org/1999/xlink">
    <title>Group</title>
    <g id="Page-1" stroke="none" stroke-width="1" fill="none" fill-rule="evenodd">
        <g id="Group" fill-rule="nonzero">
            <g id="paypal">
                <path d="M6.76438,27.5929 C4.85328,27.5929 2.94219,27.5826 1.0311,27.5826 C0.22534,27.5826 -0.105227,27.1489 0.0290658,26.3744 C0.328642,24.526 0.607559,22.6672 0.896805,20.8084 C1.18605,18.9703 1.4753,17.1322 1.76454,15.2941 C2.05379,13.4457 2.35337,11.5869 2.65294,9.73849 C2.95252,7.84875 3.2521,5.95901 3.55167,4.07959 C3.6963,3.13989 3.85125,2.18985 3.99587,1.25015 C4.11984,0.465338 4.63635,0.0213001 5.44211,0.0213001 C8.98538,0.0213001 12.5286,-0.0200057 16.0719,0.041953 C18.0553,0.0729324 20.0077,0.413705 21.6296,1.68386 C23.3754,3.04695 23.9952,4.89538 23.7679,7.05361 C23.7369,7.31177 23.7163,7.55961 23.6853,7.81777 C23.6336,7.92103 23.5303,7.91071 23.4374,7.90038 C21.5676,7.13622 19.6049,7.04329 17.6111,7.08459 C15.5141,7.1259 13.417,7.08459 11.32,7.09492 C10.4523,7.09492 10.132,7.35308 9.98741,8.21017 C9.4709,11.2978 9.01637,14.3957 8.51019,17.4833 C8.48952,17.6176 8.48952,17.7518 8.51019,17.8964 C7.9007,20.8498 7.54947,23.8341 7.03296,26.7978 C6.99164,27.0663 7.0123,27.3761 6.76438,27.5929 Z" id="Path" fill="#002F85"></path>
                <path d="M6.76501,27.5924 C7.02327,25.9092 7.29185,24.2156 7.55011,22.5324 C7.73605,21.3345 7.94266,20.1367 8.11827,18.9388 C8.16992,18.5671 8.2629,18.2056 8.40752,17.8545 C8.56247,17.2453 9.04799,17.1317 9.5645,17.1213 C10.5046,17.0904 11.4549,17.142 12.395,17.1007 C13.9239,17.0387 15.4424,16.9148 16.9093,16.4295 C19.8328,15.4691 21.7438,13.5071 22.7872,10.657 C23.0455,9.94446 23.2521,9.22161 23.3967,8.47811 C23.438,8.26125 23.438,8.02374 23.6033,7.84819 C23.6239,7.81721 23.6446,7.79656 23.6756,7.80689 C23.7066,7.92048 23.7892,7.97211 23.8822,8.02374 C25.2561,8.83953 26.0206,10.089 26.1549,11.638 C26.3924,14.4778 25.7416,17.111 23.9339,19.3725 C22.5599,21.0867 20.6695,21.8818 18.5415,22.2123 C17.5911,22.3569 16.62,22.3878 15.6593,22.3982 C14.8433,22.4085 14.4404,22.708 14.3061,23.5134 C13.9549,25.5994 13.6346,27.6853 13.2937,29.7713 C13.1491,30.649 12.7462,30.9898 11.8578,30.9898 C10.3393,30.9898 8.83106,30.9898 7.31251,30.9898 C6.54808,30.9898 6.26916,30.68 6.38279,29.9365 C6.51709,29.1517 6.64105,28.3772 6.76501,27.5924 Z" id="Path" fill="#009BDD"></path>
                <path d="M75.3061,20.1899 C75.5127,20.0763 75.5747,19.8904 75.678,19.7458 C76.9589,17.8561 78.2502,15.9663 79.5208,14.0663 C79.8514,13.5706 80.2439,13.3434 80.8431,13.3641 C81.7212,13.4054 82.5992,13.3744 83.4773,13.3744 C83.7665,13.3744 84.0248,13.4054 84.1694,13.7049 C84.314,13.994 84.1694,14.2005 84.0145,14.4174 C80.5435,19.436 77.0622,24.4547 73.5913,29.4734 C73.333,29.8451 73.0025,30.0103 72.5479,30 C71.6182,29.9897 70.6885,29.9897 69.7588,30 C69.4695,30 69.2113,29.969 69.0563,29.6799 C68.922,29.4011 69.046,29.1842 69.2009,28.9674 C70.1616,27.6043 71.112,26.2412 72.1037,24.8884 C72.331,24.5786 72.3723,24.3205 72.2483,23.9487 C71.1533,20.7888 70.079,17.6186 69.0047,14.4484 C68.7257,13.6222 68.891,13.3744 69.7588,13.3744 C70.6162,13.3744 71.4839,13.3744 72.3413,13.3744 C73.0334,13.3744 73.302,13.5706 73.4983,14.2315 C74.0561,16.0696 74.6036,17.9181 75.1511,19.7562 C75.2131,19.9007 75.2648,20.035 75.3061,20.1899 Z" id="Path" fill="#002F85"></path>
                <path d="M119.974,7.24072 C120.439,7.24072 120.904,7.2304 121.369,7.24072 C121.896,7.25105 122.081,7.4679 121.999,7.99455 C121.606,10.5762 121.193,13.1578 120.79,15.7291 C120.325,18.6824 119.85,21.6358 119.396,24.5788 C119.261,25.4256 119.013,25.6631 118.146,25.6631 C117.402,25.6631 116.668,25.6631 115.925,25.6631 C115.243,25.6631 115.067,25.4566 115.181,24.775 C115.491,22.8027 115.801,20.8406 116.111,18.8683 C116.689,15.2231 117.268,11.5778 117.836,7.92227 C117.918,7.41627 118.135,7.18909 118.642,7.22007 C119.075,7.25105 119.53,7.24072 119.974,7.24072 Z" id="Path" fill="#009BDD"></path>
                <path d="M23.6241,7.85858 C23.3865,9.94452 22.6944,11.8549 21.4134,13.5278 C19.7606,15.6757 17.4673,16.6877 14.8434,17.0594 C13.1699,17.2969 11.4861,17.266 9.81259,17.2453 C9.2341,17.235 8.76924,17.3899 8.42834,17.8649 C8.23206,17.2453 8.52131,16.6567 8.60395,16.0681 C8.90353,13.9305 9.25476,11.793 9.59565,9.65538 C9.68863,9.03579 9.79193,8.40588 9.91589,7.78629 C10.0089,7.33193 10.4944,6.93952 10.9592,6.93952 C13.9653,6.92919 16.9714,6.89822 19.9775,6.96017 C21.2275,6.98083 22.4671,7.26997 23.6241,7.85858 Z" id="Path" fill="#012069"></path>
                <path d="M99.9955,11.0407 C99.8199,9.30584 98.7766,8.22156 97.1547,7.65361 C96.4213,7.39545 95.6568,7.2612 94.8821,7.25088 C92.6094,7.24055 90.3367,7.23022 88.0641,7.23022 C87.0104,7.23022 86.8038,7.42643 86.6385,8.47972 C86.0807,12.0837 85.5125,15.6773 84.9444,19.2709 C84.6551,21.0986 84.3555,22.9367 84.0663,24.7645 C83.9527,25.4771 84.1283,25.6526 84.872,25.6526 C85.7501,25.6526 86.6282,25.6526 87.5063,25.6526 C88.4773,25.6526 88.5703,25.5597 88.7149,24.5993 C88.9215,23.2259 89.1384,21.8525 89.3554,20.4791 C89.469,19.7769 89.7582,19.529 90.4607,19.529 C90.9566,19.5187 91.4627,19.529 91.9586,19.529 C91.9586,19.5393 91.9586,19.5393 91.9586,19.5497 C92.5474,19.5187 93.1259,19.5084 93.7147,19.4464 C95.4399,19.2502 97.0204,18.7029 98.1774,17.3398 C99.7063,15.5327 100.223,13.3745 99.9955,11.0407 Z M92.5474,15.7702 C92.1342,15.8012 91.721,15.8322 91.3181,15.8631 C90.0888,15.8425 90.0888,15.8425 90.2851,14.6446 C90.4504,13.612 90.626,12.5793 90.7809,11.5364 C90.8326,11.1853 90.9876,10.9271 91.3491,10.9168 C92.1549,10.8961 92.971,10.8651 93.7561,11.0613 C94.6548,11.2885 95.099,11.8048 95.099,12.7032 C95.0783,14.4794 94.3759,15.6256 92.5474,15.7702 Z" id="Shape" fill="#009BDD"></path>
                <path d="M52.4868,10.3076 C51.9187,8.45914 50.4724,7.70531 48.7163,7.38519 C47.2184,7.1167 45.6895,7.28192 44.4396,7.24062 C42.921,7.24062 41.6711,7.24062 40.4108,7.24062 C39.7393,7.24062 39.4294,7.5091 39.3261,8.15967 C38.4481,13.7256 37.5803,19.2916 36.7023,24.8575 C36.6093,25.4565 36.7952,25.6733 37.415,25.6733 C38.3654,25.6733 39.3055,25.6837 40.2559,25.6733 C40.9067,25.6733 41.1959,25.4358 41.3095,24.7853 C41.5471,23.3499 41.7744,21.9042 42.012,20.4585 C42.1153,19.7976 42.4045,19.5394 43.0863,19.5394 C44.14,19.5291 45.1834,19.5394 46.237,19.4671 C50.6687,19.1573 53.7988,14.5827 52.4868,10.3076 Z M47.5903,13.9012 C47.3011,14.9855 46.5779,15.5741 45.4829,15.7393 C44.9768,15.8219 44.4602,15.8529 43.7991,15.8322 C43.5512,15.8012 43.0347,16.0078 42.8074,15.7599 C42.6421,15.5741 42.8694,15.0474 42.921,14.6757 C43.0657,13.6947 43.2206,12.7033 43.3756,11.7223 C43.4892,11.0201 43.6235,10.8962 44.3569,10.9065 C45.0801,10.9168 45.8032,10.8859 46.5056,11.0924 C47.2907,11.3196 47.6833,11.8152 47.7143,12.6207 C47.7349,13.0544 47.6936,13.4778 47.5903,13.9012 Z" id="Shape" fill="#002F85"></path>
                <path d="M66.6187,13.3744 C65.8749,13.3641 65.1415,13.3744 64.3977,13.3744 C63.1994,13.3744 63.1994,13.3744 62.9205,14.5 C62.9102,14.531 62.8895,14.562 62.8379,14.6446 C62.4143,13.9527 61.8048,13.5706 61.092,13.3641 C59.9144,13.0233 58.7161,12.951 57.5178,13.2195 C54.5014,13.8907 52.2907,16.3381 51.8155,19.4774 C51.5469,21.2742 51.7949,22.9677 53.0242,24.3618 C54.5014,26.0346 56.4331,26.1895 58.4785,25.7868 C59.5632,25.57 60.4722,25.0123 61.3503,24.2378 C61.3296,24.4754 61.3296,24.6303 61.309,24.7851 C61.2057,25.477 61.371,25.6629 62.0528,25.6629 C62.8069,25.6629 63.5713,25.6629 64.3254,25.6629 C65.2655,25.6629 65.5031,25.4564 65.6477,24.5373 C66.1952,21.078 66.7427,17.6186 67.2798,14.1489 C67.3728,13.6429 67.1559,13.3847 66.6187,13.3744 Z M62.342,19.4774 C62.0631,21.3464 60.5859,22.6166 58.6954,22.5959 C56.7843,22.5753 55.741,21.2535 56.1335,19.3741 C56.5364,17.4534 58.1479,16.2762 60.09,16.4724 C61.6189,16.6273 62.5796,17.9077 62.342,19.4774 Z" id="Shape" fill="#002F85"></path>
                <path d="M113.796,13.3746 C113.042,13.3746 112.278,13.3746 111.524,13.3746 C110.48,13.3746 110.439,13.4159 110.294,14.4382 C110.284,14.4899 110.284,14.5415 110.243,14.7583 C109.747,13.9012 109.055,13.5192 108.249,13.3126 C106.978,12.9925 105.697,12.9719 104.427,13.3333 C101.576,14.1388 99.4064,16.7926 99.1275,19.7976 C98.9829,21.3363 99.2101,22.782 100.13,24.0625 C101.286,25.6837 103.6,26.3756 105.852,25.8076 C106.937,25.5392 107.877,25.0125 108.766,24.1967 C108.724,24.4445 108.693,24.5685 108.673,24.7027 C108.538,25.4669 108.714,25.6734 109.489,25.6734 C110.263,25.6734 111.038,25.6734 111.813,25.6734 C112.608,25.6734 112.867,25.4256 112.991,24.6201 C113.249,22.9782 113.517,21.326 113.776,19.6841 C114.065,17.8873 114.354,16.0905 114.623,14.2833 C114.736,13.5605 114.55,13.3746 113.796,13.3746 Z M109.633,19.8286 C109.21,21.5428 107.846,22.5961 106.069,22.5961 C104.231,22.5858 103.208,21.4086 103.466,19.5808 C103.755,17.5465 105.543,16.1937 107.557,16.4829 C109.168,16.7204 110.047,18.1351 109.633,19.8286 Z" id="Shape" fill="#009BDD"></path>
            </g>
            <g id="" transform="translate(0.000000, 48.000000)" fill="#000000" opacity="0.3">
                <path d="M0.125,4.75 C-0.03125,4.90625 -0.03125,5.125 0.125,5.28125 L4.71875,9.90625 C4.84375,10.0625 5.09375,10.0625 5.25,9.90625 L5.84375,9.28125 C6,9.125 6,8.90625 5.84375,8.75 L2.15625,5 L5.84375,1.28125 C6,1.125 6,0.875 5.84375,0.75 L5.25,0.125 C5.09375,-0.03125 4.84375,-0.03125 4.71875,0.125 L0.125,4.75 Z" id="Path"></path>
            </g>
            <g id="" transform="translate(24.000000, 53.500000) scale(-1, 1) translate(-24.000000, -53.500000) translate(21.000000, 48.000000)" fill="#000000" opacity="0.3">
                <path d="M0.125,4.75 C-0.03125,4.90625 -0.03125,5.125 0.125,5.28125 L4.71875,9.90625 C4.84375,10.0625 5.09375,10.0625 5.25,9.90625 L5.84375,9.28125 C6,9.125 6,8.90625 5.84375,8.75 L2.15625,5 L5.84375,1.28125 C6,1.125 6,0.875 5.84375,0.75 L5.25,0.125 C5.09375,-0.03125 4.84375,-0.03125 4.71875,0.125 L0.125,4.75 Z" id="Path"></path>
            </g>
            <g id="" transform="translate(21.000000, 67.000000)" fill="#000000">
                <path d="M5.84375,5.28125 C6,5.125 6,4.90625 5.84375,4.75 L1.28125,0.125 C1.125,-0.03125 0.875,-0.03125 0.75,0.125 L0.125,0.75 C-0.03125,0.875 -0.03125,1.125 0.125,1.28125 L3.8125,5 L0.125,8.75 C-0.03125,8.90625 -0.03125,9.125 0.125,9.28125 L0.75,9.90625 C0.875,10.0625 1.125,10.0625 1.28125,9.90625 L5.84375,5.28125 Z" id="Path"></path>
            </g>
            <g id="" transform="translate(3.000000, 72.500000) scale(-1, 1) translate(-3.000000, -72.500000) translate(0.000000, 67.000000)" fill="#000000">
                <path d="M5.84375,5.28125 C6,5.125 6,4.90625 5.84375,4.75 L1.28125,0.125 C1.125,-0.03125 0.875,-0.03125 0.75,0.125 L0.125,0.75 C-0.03125,0.875 -0.03125,1.125 0.125,1.28125 L3.8125,5 L0.125,8.75 C-0.03125,8.90625 -0.03125,9.125 0.125,9.28125 L0.75,9.90625 C0.875,10.0625 1.125,10.0625 1.28125,9.90625 L5.84375,5.28125 Z" id="Path"></path>
            </g>
            <g id="" transform="translate(42.000000, 47.000000)" fill="#505355">
                <path d="M11.75,5.25 L6.75,5.25 L6.75,0.25 C6.75,0.125 6.625,0 6.5,0 L5.5,0 C5.34375,0 5.25,0.125 5.25,0.25 L5.25,5.25 L0.25,5.25 C0.09375,5.25 0,5.375 0,5.5 L0,6.5 C0,6.65625 0.09375,6.75 0.25,6.75 L5.25,6.75 L5.25,11.75 C5.25,11.9062 5.34375,12 5.5,12 L6.5,12 C6.625,12 6.75,11.9062 6.75,11.75 L6.75,6.75 L11.75,6.75 C11.875,6.75 12,6.65625 12,6.5 L12,5.5 C12,5.375 11.875,5.25 11.75,5.25 Z" id="Path"></path>
            </g>
            <g id="" transform="translate(42.000000, 73.000000)" fill="#505355">
                <path d="M11.75,0.25 L0.25,0.25 C0.09375,0.25 0,0.375 0,0.5 L0,1.5 C0,1.65625 0.09375,1.75 0.25,1.75 L11.75,1.75 C11.875,1.75 12,1.65625 12,1.5 L12,0.5 C12,0.375 11.875,0.25 11.75,0.25 Z" id="Path"></path>
            </g>
            <g id="" transform="translate(0.000000, 146.000000)" fill="#000000">
                <path d="M1.73554,8.56281 L5.97005,8.56281 L5.97005,23.3568 C5.97005,23.732 6.23806,24.0000002 6.61326,24.0000002 L7.14928,24.0000002 C7.47089,24.0000002 7.79249,23.732 7.79249,23.3568 L7.79249,8.56281 L11.9734,8.56281 C13.5278,8.56281 14.2783,6.74037 13.2062,5.66834 L8.0605,0.522613 C7.41728,-0.174204 6.29166,-0.174204 5.64844,0.522613 L0.502712,5.66834 C-0.569315,6.74037 0.181104,8.56281 1.73554,8.56281 Z M6.88127,1.70184 L12.027,6.84757 L1.73554,6.84757 L6.88127,1.70184 Z" id="Shape"></path>
            </g>
            <g id="" transform="translate(48.000000, 145.000000)" fill="#000000">
                <path d="M12.8828,24.5312 L13.2656,24.1484 C13.5391,23.875 13.5391,23.4922 13.2656,23.2188 L3.53125,13.4297 L24.0938,13.4297 C24.4219,13.4297 24.75,13.1562 24.75,12.7734 L24.75,12.2266 C24.75,11.8984 24.4219,11.5703 24.0938,11.5703 L3.53125,11.5703 L13.2656,1.83594 C13.5391,1.5625 13.5391,1.17969 13.2656,0.90625 L12.8828,0.523438 C12.6094,0.25 12.2266,0.25 11.9531,0.523438 L0.414062,12.0625 C0.140625,12.3359 0.140625,12.7188 0.414062,12.9922 L11.9531,24.5312 C12.2266,24.8047 12.6094,24.8047 12.8828,24.5312 Z" id="Path"></path>
            </g>
            <g id="" transform="translate(111.000000, 147.000000)" fill="#000000">
                <path d="M17.7598,3.33203 L15.668,1.24023 C15.3398,0.912109 14.7246,0.625 14.2734,0.625 L7.21875,0.625 C6.11133,0.625 5.25,1.52734 5.25,2.59375 L5.25,4.5625 L1.96875,4.5625 C0.861328,4.5625 0,5.46484 0,6.53125 L0,19.6562 C0,20.7637 0.861328,21.625 1.96875,21.625 L11.1562,21.625 C12.2227,21.625 13.125,20.7637 13.125,19.6562 L13.125,17.6875 L16.4062,17.6875 C17.4727,17.6875 18.375,16.8262 18.375,15.7188 L18.375,4.72656 C18.375,4.27539 18.0879,3.66016 17.7598,3.33203 Z M10.9102,19.6562 L2.21484,19.6562 C2.05078,19.6562 1.96875,19.5742 1.96875,19.4102 L1.96875,6.77734 C1.96875,6.6543 2.05078,6.53125 2.21484,6.53125 L5.25,6.53125 L5.25,15.7188 C5.25,16.8262 6.11133,17.6875 7.21875,17.6875 L11.1562,17.6875 L11.1562,19.4102 C11.1562,19.5742 11.0332,19.6562 10.9102,19.6562 Z M16.1602,15.7188 L7.46484,15.7188 C7.30078,15.7188 7.21875,15.6367 7.21875,15.4727 L7.21875,2.83984 C7.21875,2.7168 7.30078,2.59375 7.46484,2.59375 L11.8125,2.59375 L11.8125,6.20312 C11.8125,6.77734 12.2227,7.1875 12.7969,7.1875 L16.4062,7.1875 L16.4062,15.4727 C16.4062,15.6367 16.2832,15.7188 16.1602,15.7188 Z M16.4062,5.21875 L13.7812,5.21875 L13.7812,2.59375 L14.1504,2.59375 C14.2324,2.59375 14.2734,2.63477 14.3145,2.67578 L16.3242,4.68555 C16.3652,4.72656 16.4062,4.76758 16.4062,4.84961 L16.4062,5.21875 Z" id="Shape"></path>
            </g>
        </g>
    </g>
</svg>