<?xml version="1.0" encoding="UTF-8"?>
<svg width="214px" height="271px" viewBox="0 0 214 271" version="1.1" xmlns="http://www.w3.org/2000/svg" xmlns:xlink="http://www.w3.org/1999/xlink">
    <title>Group</title>
    <g id="Page-1" stroke="none" stroke-width="1" fill="none" fill-rule="evenodd">
        <g id="Group" transform="translate(1.000000, 0.000000)">
            <g id="Hamburger-Menuw" fill-rule="nonzero">
                <rect id="Rectangle" fill="#F6F7FB" x="0.375" y="0.375" width="29.25" height="29.25" rx="14.625"></rect>
                <rect id="Rectangle" fill="#4A86FF" x="7.125" y="8.25" width="15.75" height="2.25" rx="1.125"></rect>
                <rect id="Rectangle" fill="#4A86FF" x="7.125" y="13.875" width="15.75" height="2.25" rx="1.125"></rect>
                <rect id="Rectangle" fill="#4A86FF" x="7.125" y="19.5" width="15.75" height="2.25" rx="1.125"></rect>
            </g>
            <g id="Hamburger-Menu" transform="translate(64.000000, 8.000000)" fill="#000000" fill-rule="nonzero">
                <rect id="Rectangle" x="0.125" y="0.25" width="15.75" height="2.25" rx="1.125"></rect>
                <rect id="Rectangle" x="0.125" y="5.875" width="15.75" height="2.25" rx="1.125"></rect>
                <rect id="Rectangle" x="0.125" y="11.5" width="15.75" height="2.25" rx="1.125"></rect>
            </g>
            <g id="arrow-purple-right" transform="translate(173.000000, 0.000000)">
                <path d="M40,20 C40,8.95431 31.0457,0 20,0 C8.95431,0 0,8.95431 0,20 C0,31.0457 8.95431,40 20,40 C31.0457,40 40,31.0457 40,20 Z" id="Path" fill="#FFFFFF" fill-rule="nonzero"></path>
                <polygon id="Path" fill="#A9B8C9" points="18.9423 15 24.167 20.2247 18.9423 25.4495 17.2923 23.7995 20.8672 20.2247 17.2923 16.6499"></polygon>
            </g>
            <g id="arrow-purple-left" transform="translate(114.000000, 0.000000)">
                <path d="M0,20 C0,8.95431 8.95431,0 20,0 C31.0457,0 40,8.95431 40,20 C40,31.0457 31.0457,40 20,40 C8.95431,40 0,31.0457 0,20 Z" id="Path" fill="#FFFFFF" fill-rule="nonzero"></path>
                <polygon id="Path" fill="#A9B8C9" points="21.0577 15 15.833 20.2247 21.0577 25.4495 22.7077 23.7995 19.1328 20.2247 22.7077 16.6499"></polygon>
            </g>
            <g id="location-copy" transform="translate(0.000000, 60.000000)" stroke-linecap="round" stroke-linejoin="round" stroke-width="1.5">
                <path d="M6.03551,16.3515 L14.0796,27.8977 L22.1237,16.3515 C23.3859,14.6716 24.1325,12.5739 24.1325,10.3073 C24.1325,3.20538 16.7906,-2.17217 9.2887,1.35657 C7.4399,2.22765 5.94663,3.73869 5.09333,5.59639 C3.25341,9.5962 3.92893,13.5427 6.03551,16.3515 Z" id="Path" stroke="#A8A8A8"></path>
                <polyline id="Path" stroke="#A8A8A8" points="7.35968 23.3555 3.98206 23.3555 0 32.244 28.4432 32.244 24.4612 23.3555 20.9858 23.3555"></polyline>
                <path d="M14.2218,15.3557 C17.1672,15.3557 19.5549,12.968 19.5549,10.0226 C19.5549,7.07717 17.1672,4.68945 14.2218,4.68945 C11.2764,4.68945 8.88867,7.07717 8.88867,10.0226 C8.88867,12.968 11.2764,15.3557 14.2218,15.3557 Z" id="Path" stroke="#FFBE00"></path>
            </g>
            <g id="phone-icon" transform="translate(57.000000, 62.000000)" stroke-linecap="round" stroke-linejoin="round" stroke-width="1.34468">
                <line x1="3.7666" y1="3.76465" x2="6.7783" y2="9.0351" id="Path" stroke="#A8A8A8"></line>
                <line x1="18.0723" y1="20.3286" x2="23.3427" y2="23.3403" id="Path" stroke="#A8A8A8"></line>
                <path d="M0.00205,8.3427 C0.25804,11.8965 2.78787,16.911 6.49226,20.6154 C10.1967,24.3198 15.2187,26.8496 18.7725,27.0981 C19.9922,27.1884 23.2674,24.7264 23.8622,22.9495 C24.2989,21.662 24.1634,20.7961 22.9813,20.1787 L20.1955,18.6804 C19.5179,18.3114 18.9908,18.5825 18.4035,19.3806 C17.1236,21.1424 16.4986,21.4888 14.925,20.6154 C13.4568,19.7947 10.8969,17.3176 9.5793,16 C8.26164,14.6823 7.29036,13.6282 6.46967,12.1676 C5.58875,10.594 5.94263,9.9766 7.70447,8.6891 C8.5101,8.1018 8.77363,7.5747 8.4047,6.89709 L6.90637,4.11127 C6.2965,2.92918 5.42311,2.79365 4.13561,3.23035 C2.36623,3.84022 -0.080774,7.1305 0.00205,8.3427 Z" id="Path" stroke="#A8A8A8"></path>
                <path d="M13.7806,0 L28.3873,0 C29.3435,0 30.119,0.77551 30.119,1.73173 L30.119,11.068 C30.119,12.0242 29.3435,12.7997 28.3873,12.7997 L15.4219,12.7997 L12.0488,15.2618 L12.0488,1.73173 C12.0488,0.77551 12.8243,0 13.7806,0 Z" id="Path" stroke="#A8A8A8"></path>
                <polygon id="Path" stroke="#FFBE00" points="26.2534 4.23438 16.0908 4.23438 16.0908 7.6219 26.2534 7.6219"></polygon>
            </g>
            <g id="enail-icon" transform="translate(118.000000, 60.000000)" stroke-linecap="round" stroke-linejoin="round" stroke-width="1.5">
                <path d="M18.3229,16.4048 C18.3229,18.1765 17.1207,19.6137 15.6473,19.6137 C14.1649,19.6137 12.9717,18.1765 12.9717,16.4048 C12.9717,14.6331 14.1739,13.1957582 15.6473,13.1957582 C17.1298,13.1868 18.3229,14.6331 18.3229,16.4048 Z" id="Path" stroke="#FFBE00"></path>
                <path d="M18.3226,13.1879 L18.3226,16.668 C18.3226,18.1233 19.5068,19.3075 20.9621,19.3075 C22.2999,19.3075 23.4931,18.2228 23.6016,16.885 C23.6829,15.8635 23.5745,14.7878 23.231,13.685 C22.4717,11.2264 20.474,9.292 18.0063,8.57785 C12.5646,7.00501 7.62012,11.0456 7.62012,16.2341 C7.62012,20.6543 11.1997,24.2339 15.6199,24.2339" id="Path" stroke="#FFBE00"></path>
                <path d="M16,32.2441 C24.8366,32.2441 32,25.0807 32,16.2441 C32,7.40758 24.8366,0.24414 16,0.24414 C7.16344,0.24414 0,7.40758 0,16.2441 C0,25.0807 7.16344,32.2441 16,32.2441 Z" id="Path" stroke="#A8A8A8"></path>
            </g>
            <g id="Hamburger-Menu-closwe" transform="translate(183.000000, 63.000000)" fill-rule="nonzero">
                <rect id="Rectangle" fill="#F6F7FB" x="0" y="0" width="29.25" height="29.25" rx="14.625"></rect>
                <rect id="Rectangle" fill="#5A86E0" transform="translate(14.363961, 15.364029) rotate(-45.000000) translate(-14.363961, -15.364029) " x="6.48896103" y="14.2390292" width="15.75" height="2.25" rx="1.125"></rect>
                <rect id="Rectangle" fill="#5A86E0" transform="translate(14.772971, 15.363961) rotate(45.000000) translate(-14.772971, -15.363961) " x="6.89797077" y="14.238961" width="15.75" height="2.25" rx="1.125"></rect>
            </g>
            <g id="Hamburger-Menu-close" transform="translate(191.000000, 116.000000)" fill="#000000" fill-rule="nonzero">
                <rect id="Rectangle" transform="translate(6.363961, 6.364029) rotate(-45.000000) translate(-6.363961, -6.364029) " x="-1.51103897" y="5.23902923" width="15.75" height="2.25" rx="1.125"></rect>
                <rect id="Rectangle" transform="translate(6.772971, 6.363961) rotate(45.000000) translate(-6.772971, -6.363961) " x="-1.10202923" y="5.23896103" width="15.75" height="2.25" rx="1.125"></rect>
            </g>
            <g id="loggo" transform="translate(0.000000, 243.000000)">
                <path d="M15.6451,11.6567 C15.6451,15.4188 12.5953,18.4685 8.83326,18.4685 C5.07121,18.4685 2.02147,15.4188 2.02147,11.6567 C2.02147,7.8947 5.07121,4.84495 8.83326,4.84495 C12.5953,4.84495 15.6451,7.8947 15.6451,11.6567 Z" id="Path" stroke="#FFC20E" stroke-width="4.64254"></path>
                <path d="M14.0807,21.2268 C12.7022,22.5466 10.8325,23.3575 8.77344,23.3575 C6.68318,23.3575 4.78809,22.5219 3.40396,21.1665 C2.20082,22.3727 0.79596,23.8086 0.1875,24.5145 C2.40608,26.6716 5.43463,28 8.77344,28 C12.2013,28 15.3021,26.5998 17.5351,24.3402 L14.4215,21.2705 L14.0807,21.2268 Z" id="Path" fill="#FFC20E"></path>
                <rect id="Rectangle" fill="#FFC20E" fill-rule="nonzero" x="13.2798" y="0" width="4.68671" height="12.4979"></rect>
            </g>
            <g id="shopping-cart-(1)-1" transform="translate(4.000000, 116.000000)" stroke="#FFFFFF" stroke-linecap="round" stroke-linejoin="round" stroke-width="2">
                <path d="M6.75,20 C7.30228,20 7.75,19.5523 7.75,19 C7.75,18.4477 7.30228,18 6.75,18 C6.19772,18 5.75,18.4477 5.75,19 C5.75,19.5523 6.19772,20 6.75,20 Z" id="Path"></path>
                <path d="M17.75,20 C18.3023,20 18.75,19.5523 18.75,19 C18.75,18.4477 18.3023,18 17.75,18 C17.1977,18 16.75,18.4477 16.75,19 C16.75,19.5523 17.1977,20 17.75,20 Z" id="Path"></path>
                <path d="M0,0.25 L4,0.25 L5.42997,12.39 C5.52141,12.8504 5.77188,13.264 6.13751,13.5583 C6.50315,13.8527 6.96067,14.009 7.42997,14 L17.15,14 C17.6193,14.009 18.0768,13.8527 18.4424,13.5583 C18.8081,13.264 19.0585,12.8504 19.15,12.39 L20.75,4.00003 L4.44171,4.00003" id="Path"></path>
            </g>
            <g id="shopping-cart-(21)-1" transform="translate(46.000000, 116.000000)" stroke="#000000" stroke-linecap="round" stroke-linejoin="round" stroke-width="2">
                <path d="M6.75,20 C7.30228,20 7.75,19.5523 7.75,19 C7.75,18.4477 7.30228,18 6.75,18 C6.19772,18 5.75,18.4477 5.75,19 C5.75,19.5523 6.19772,20 6.75,20 Z" id="Path"></path>
                <path d="M17.75,20 C18.3023,20 18.75,19.5523 18.75,19 C18.75,18.4477 18.3023,18 17.75,18 C17.1977,18 16.75,18.4477 16.75,19 C16.75,19.5523 17.1977,20 17.75,20 Z" id="Path"></path>
                <path d="M0,0.25 L4,0.25 L5.42997,12.39 C5.52141,12.8504 5.77188,13.264 6.13751,13.5583 C6.50315,13.8527 6.96067,14.009 7.42997,14 L17.15,14 C17.6193,14.009 18.0768,13.8527 18.4424,13.5583 C18.8081,13.264 19.0585,12.8504 19.15,12.39 L20.75,4.00003 L4.44171,4.00003" id="Path"></path>
            </g>
            <g id="arrow-left-mobile" transform="translate(102.000000, 14.000000)" fill="#A9B8C9">
                <polygon id="Path" points="3.63484 -6.10352e-05 0.5 3.13478 3.63484 6.26962 4.62479 5.27967 2.4799 3.13478 4.62479 0.989888"></polygon>
            </g>
            <g id="arrow-right-mobile" transform="translate(102.000000, 33.000000)" fill="#A9B8C9">
                <polygon id="Path" points="1.36516 -6.10352e-05 4.5 3.13478 1.36516 6.26962 0.375209 5.27967 2.5201 3.13478 0.375209 0.989888"></polygon>
            </g>
            <g id="left" transform="translate(117.000000, 120.000000)" fill="#FFFFFF">
                <polygon id="Path" points="6.05774 0 0.833008 5.22473 6.05774 10.4495 7.70766 8.79955 4.13284 5.22473 7.70766 1.64992"></polygon>
            </g>
            <g id="right" transform="translate(150.000000, 120.000000)" fill="#FFFFFF">
                <polygon id="Path" points="1.94226 0 7.16699 5.22473 1.94226 10.4495 0.29234 8.79955 3.86716 5.22473 0.29234 1.64992"></polygon>
            </g>
        </g>
    </g>
</svg>